<svg xmlns="http://www.w3.org/2000/svg" version="1.1" xmlns:xlink="http://www.w3.org/1999/xlink" xmlns:svgjs="http://svgjs.dev/svgjs" width="1000" height="750" viewBox="0 0 1000 750"><rect width="1000" height="750" fill="#000000"></rect><g transform="matrix(0.834,0,0,0.834,82.49454545454546,115.4193570850203)"><svg viewBox="0 0 396 247" data-background-color="#000000" preserveAspectRatio="xMidYMid meet" height="623" width="1000" xmlns="http://www.w3.org/2000/svg" xmlns:xlink="http://www.w3.org/1999/xlink"><g id="tight-bounds" transform="matrix(1,0,0,1,0.2400000000000091,-0.09999999999999432)"><svg viewBox="0 0 395.52 247.2" height="247.2" width="395.52"><g><svg></svg></g><g><svg viewBox="0 0 395.52 247.2" height="247.2" width="395.52"><g transform="matrix(1,0,0,1,75.54432,101.22258141708761)"><svg viewBox="0 0 244.43135999999998 44.75483716582477" height="44.75483716582477" width="244.43135999999998"><g><svg viewBox="0 0 327.69185276286237 59.999647798749436" height="44.75483716582477" width="244.43135999999998"><g><rect width="3.915217191119937" height="52.09810228545537" x="69.09601590912484" y="3.9507727566470336" fill="#a2b2d1" opacity="1" stroke-width="0" stroke="transparent" fill-opacity="1" class="rect-uu-0" data-fill-palette-color="primary" rx="1%" id="uu-0" data-palette-color="#a2b2d1"></rect></g><g transform="matrix(1,0,0,1,83.26049276286241,8.292281280434981)"><svg viewBox="0 0 244.43135999999998 43.415085237879474" height="43.415085237879474" width="244.43135999999998"><g><svg viewBox="0 0 244.43135999999998 43.415085237879474" height="43.415085237879474" width="244.43135999999998"><g><svg viewBox="0 0 244.43135999999998 43.415085237879474" height="43.415085237879474" width="244.43135999999998"><g transform="matrix(1,0,0,1,0,0)"><svg width="244.43135999999998" viewBox="0.55 -38.25 220.69 39.2" height="43.415085237879474" data-palette-color="#a2b2d1"><path d="M33-37.45L33-37.7Q34.05-38.1 35.95-38.1 37.85-38.1 39.35-37.85L39.35-37.85Q37.8-26.35 36.93-17.03 36.05-7.7 35.98-7.2 35.9-6.7 35.9-6.3L35.9-6.3Q35.95-5 37.15-5L37.15-5Q40.15-5 45.5-11.9L45.5-11.9Q46.45-9.25 46.6-8.35L46.6-8.35Q44.2-4.55 40.83-2.13 37.45 0.3 34.45 0.3 31.45 0.3 30.3-1.25 29.15-2.8 29.15-4.7L29.15-4.7Q29.15-5.15 29.28-6.45 29.4-7.75 31.25-22.65L31.25-22.65 23.05-3.7 18.8-3.7 16.35-22.35 12.85-6.85Q12-3.15 10.08-1.4 8.15 0.35 5.85 0.35 3.55 0.35 2.1-1L2.1-1Q0.55-2.45 0.55-5.1L0.55-5.1Q0.55-10.4 8.75-14.15L8.75-14.15Q13.2-35.5 13.55-37.8L13.55-37.8Q14.75-38.1 16.78-38.1 18.8-38.1 19.55-38L19.55-38 19.9-38 23-14.75 33-37.45ZM4.1-5.95L4.1-5.95Q4.1-4.35 5.35-4.35L5.35-4.35Q6.2-4.35 6.75-5.7L6.75-5.7Q7.45-7.35 7.9-10.05L7.9-10.05Q4.1-7.9 4.1-5.95ZM46.67-6Q47.85-7.2 49.55-7.2 51.25-7.2 52.45-6 53.65-4.8 53.65-3.1 53.65-1.4 52.45-0.23 51.25 0.95 49.55 0.95 47.85 0.95 46.67-0.23 45.5-1.4 45.5-3.1 45.5-4.8 46.67-6ZM80.7-36.9Q81-37.3 82.62-37.68 84.25-38.05 85.7-38.05 87.15-38.05 88.1-37.65L88.1-37.65Q84.45-8.45 84.45-7.45 84.45-6.45 85.07-5.68 85.7-4.9 86.9-4.9L86.9-4.9Q90.2-4.9 92.8-13.95L92.8-13.95Q92.8-14.05 92.85-14.2 92.9-14.35 92.9-14.4L92.9-14.4Q95.1-13 95.75-12.65L95.75-12.65Q94.1-6.35 91.65-3.03 89.2 0.3 85.35 0.3 81.5 0.3 80.15-3.35L80.15-3.35 80-3.35Q78.45-1.4 76.55-0.55 74.65 0.3 71.8 0.3L71.8 0.3Q67.1 0.3 64.57-2.15 62.05-4.6 62.05-9.15L62.05-9.15Q62.05-10.1 62.2-11.25L62.2-11.25 63.6-22.95Q58.65-26.45 58.65-31.2L58.65-31.2Q58.65-34.35 60.55-36.2 62.45-38.05 65.4-38.05L65.4-38.05Q71.55-38.05 71.55-31.55L71.55-31.55Q71.55-30.5 71.4-29.2L71.4-29.2 68.85-9.65Q68.8-9.3 68.8-8.6L68.8-8.6Q68.8-6.65 69.7-5.45 70.6-4.25 72.45-4.25L72.45-4.25Q76.9-4.25 77.7-11.15L77.7-11.15 80.7-36.9ZM63.55-33.45L63.55-33.45Q61.85-33.45 61.85-31.38 61.85-29.3 64.15-27.3L64.15-27.3 64.3-28.6Q64.6-31.2 64.65-31.85L64.65-31.85Q64.65-33.45 63.55-33.45ZM90.84-27.05L90.84-27.05Q90.84-31.8 95.04-34.93 99.24-38.05 106.14-38.05L106.14-38.05Q109.79-38.05 112.69-37.33 115.59-36.6 117.29-35.5 118.99-34.4 120.14-32.95L120.14-32.95Q122.04-30.45 122.02-27.38 121.99-24.3 119.59-21.9 117.19-19.5 113.79-19.4L113.79-19.4Q118.04-19.1 121.17-16.6 124.29-14.1 124.29-10.3L124.29-10.3Q124.29-5.3 120.44-2.5 116.59 0.3 111.07 0.3 105.54 0.3 103.54-1.15L103.54-1.15 105.09-5.35Q107.29-4.2 110.22-4.2 113.14-4.2 114.99-5.93 116.84-7.65 116.84-10.5 116.84-13.35 114.32-15.3 111.79-17.25 107.44-17.25L107.44-17.25 107.89-20.95Q110.89-20.95 112.97-22.38 115.04-23.8 115.12-26.65 115.19-29.5 112.54-31.45L112.54-31.45Q109.69-33.5 104.74-33.5L104.74-33.5Q101.49-33.5 98.39-31.83 95.29-30.15 95.29-27.35L95.29-27.35Q95.29-26 96.39-25.08 97.49-24.15 99.29-23.95L99.29-23.95 98.74-20.25Q94.94-20.4 92.89-22.4 90.84-24.4 90.84-27.05ZM105.14-9.6Q104.34-4.25 102.04-2.02 99.74 0.2 96.64 0.2 93.54 0.2 91.94-1.4 90.34-3 90.34-5.5L90.34-5.5Q90.34-11.4 99.29-15.55L99.29-15.55Q99.54-17.65 100.02-21.23 100.49-24.8 100.77-27 101.04-29.2 101.14-29.9L101.14-29.9Q103.19-31.2 105.89-31.2L105.89-31.2Q107.14-31.2 108.29-30.95L108.29-30.95 105.14-9.6ZM94.04-6.15L94.04-6.15Q94.04-4.35 95.74-4.35L95.74-4.35Q96.44-4.35 97.22-5.28 97.99-6.2 98.29-8.2L98.29-8.2 98.74-11.3Q94.04-8.65 94.04-6.15ZM154.49 0.1L154.49 0.1Q151.69 0.1 150.27-1.73 148.84-3.55 148.34-8.55L148.34-8.55Q148.04-11.15 147.74-15.3L147.74-15.3Q144.24-14.25 140.69-13.1L140.69-13.1 138.99-8.4Q138.49-7.05 138.29-6.48 138.09-5.9 137.56-4.75 137.04-3.6 136.66-3.08 136.29-2.55 135.62-1.75 134.94-0.95 134.24-0.6L134.24-0.6Q132.44 0.3 130.39 0.3 128.34 0.3 127.06-1.18 125.79-2.65 125.79-4.8L125.79-4.8Q125.79-5.4 125.89-6.05L125.89-6.05Q126.54-10.85 135.74-14.8L135.74-14.8Q138.34-21.45 144.39-37.2L144.39-37.2Q145.99-38.1 148.44-38.1L148.44-38.1Q148.99-38.1 149.49-38.1 149.99-38.1 150.72-38.1 151.44-38.1 152.54-37.8L152.54-37.8Q152.59-35.45 154.84-8.65L154.84-8.65Q155.04-6.4 155.39-5.73 155.74-5.05 156.59-5.05L156.59-5.05Q157.99-5.05 160.31-6.95 162.64-8.85 164.49-11.7L164.49-11.7 165.89-8.3 164.69-6.7Q159.44 0.1 154.49 0.1ZM147.39-19L146.54-29.4 142.19-17.25Q145.69-18.45 147.39-19L147.39-19ZM133.99-10.45Q129.34-8.1 129.34-5.85L129.34-5.85Q129.34-4.25 130.54-4.25L130.54-4.25Q131.44-4.25 131.99-5.55L131.99-5.55Q132.64-6.95 133.99-10.45L133.99-10.45ZM187.59-32.4L187.59-32.4Q186.79-32.75 186.01-32.75 185.24-32.75 184.51-31.8 183.79-30.85 183.54-29.05L183.54-29.05 180.94-10.5Q180.24-5.45 177.46-2.55 174.69 0.35 170.54 0.35L170.54 0.35Q166.39 0.35 164.11-1.98 161.84-4.3 161.84-7.53 161.84-10.75 164.06-13 166.29-15.25 169.69-15.25L169.69-15.25Q171.79-15.25 172.99-14.95L172.99-14.95 172.74-11.9Q171.89-12.1 170.11-12.1 168.34-12.1 166.96-10.9 165.59-9.7 165.59-7.9 165.59-6.1 166.59-5.13 167.59-4.15 168.99-4.15L168.99-4.15Q173.19-4.15 173.89-10.35L173.89-10.35Q175.24-22.75 175.84-27.1L175.84-27.1Q172.84-26.05 170.54-26.05L170.54-26.05Q166.89-26.05 164.96-27.75 163.04-29.45 163.04-32.2 163.04-34.95 165.01-36.52 166.99-38.1 169.99-38.1L169.99-38.1Q171.84-38.1 175.31-36.95 178.79-35.8 180.69-35.8L180.69-35.8Q184.09-35.8 186.39-37.55L186.39-37.55Q187.64-35.8 187.64-33.4L187.64-33.4Q187.64-32.9 187.59-32.4ZM167.99-30.85L167.99-30.85Q167.99-30.1 168.81-29.55 169.64-29 171.31-29 172.99-29 175.69-30.5L175.69-30.5Q173.74-30.95 171.69-31.53 169.64-32.1 169.24-32.1L169.24-32.1Q167.99-32.1 167.99-30.85ZM186.19-26.8L186.19-26.8Q186.19-32.15 190.84-35.2 195.49-38.25 201.54-38.25L201.54-38.25Q209.29-38.25 215.14-33.8L215.14-33.8Q218.04-31.55 219.64-27.83 221.24-24.1 221.24-19.6L221.24-19.6Q221.24-10.75 216.19-5.2L216.19-5.2Q210.94 0.45 203.04 0.45L203.04 0.45Q201.29 0.45 199.34 0 197.39-0.45 196.24-1.2L196.24-1.2Q194.39 0.2 191.51 0.2 188.64 0.2 187.04-1.4 185.44-3 185.44-5.5L185.44-5.5Q185.44-11.4 194.39-15.55L194.39-15.55Q194.64-17.65 195.11-21.23 195.59-24.8 195.86-27 196.14-29.2 196.24-29.9L196.24-29.9Q198.29-31.2 200.99-31.2L200.99-31.2Q202.24-31.2 203.39-30.95L203.39-30.95 200.24-9.6Q199.79-6.75 198.99-4.85L198.99-4.85Q200.54-4.45 201.49-4.45L201.49-4.45Q207.24-4.45 210.39-8.8L210.39-8.8Q213.64-13.35 213.64-19.8L213.64-19.8Q213.64-28.05 207.69-31.65L207.69-31.65Q204.39-33.65 200.44-33.65L200.44-33.65Q195.39-33.65 192.44-30.9L192.44-30.9Q190.74-29.35 190.74-27.15L190.74-27.15Q190.74-26 191.44-24.98 192.14-23.95 193.89-23.8L193.89-23.8 193.39-20.55Q189.74-20.75 187.96-22.58 186.19-24.4 186.19-26.8ZM189.14-6.15L189.14-6.15Q189.14-4.35 190.84-4.35L190.84-4.35Q191.54-4.35 192.31-5.28 193.09-6.2 193.39-8.2L193.39-8.2 193.84-11.3Q189.14-8.65 189.14-6.15Z" opacity="1" transform="matrix(1,0,0,1,0,0)" fill="#a2b2d1" class="undefined-text-0" data-fill-palette-color="primary" id="text-0"></path></svg></g></svg></g></svg></g></svg></g><g><svg viewBox="0 0 58.846756246507205 59.999647798749436" height="59.999647798749436" width="58.846756246507205"><g><svg xmlns="http://www.w3.org/2000/svg" xmlns:xlink="http://www.w3.org/1999/xlink" version="1.1" x="0" y="0" viewBox="7.503699914420274 6.811501795060982 86.96977924514243 88.67364076933728" style="enable-background:new 0 0 100 100;" xml:space="preserve" height="59.999647798749436" width="58.846756246507205" class="icon-icon-0" data-fill-palette-color="accent" id="icon-0"><g fill="#dede49" data-fill-palette-color="accent"><path d="M49.1 71.4c0 0-4.2-21 13.5-30.1C7.4 30.2-3.2 76.8 17 92.1 31.7 102 53.1 88.7 49.1 71.4zM13.6 86.6C0.4 65 19.3 49.7 19.3 49.7 7.5 66 22 80 13.6 86.6z" fill="#dede49" data-fill-palette-color="accent"></path></g><g fill="#dede49" data-fill-palette-color="accent"><path d="M48.2 30c0 0 7.2-5.7 17.3-1.7C57.2-2.8 31 4.9 28.8 19.9 28.1 30 38.8 35 48.2 30zM29.7 20.1C33.7 5 48.2 7.9 48.2 7.9 36.7 7.5 36 23.1 29.7 20.1z" fill="#dede49" data-fill-palette-color="accent"></path></g><g fill="#dede49" data-fill-palette-color="accent"><path d="M71.8 85.7c18.5 4.1 38.6-25.4 3.1-48.1 4.2 14-8.4 20.6-8.4 20.6C55.3 64.8 59.1 82.9 71.8 85.7zM76.1 47.6c-0.8 17.3-8.4 25.1-15 25.8-1.2-5.9 1.5-11.8 5.8-14.3C69.7 57.3 73.6 55 76.1 47.6z" fill="#dede49" data-fill-palette-color="accent"></path></g></svg></g></svg></g></svg></g></svg></g><g><path d="M0 123.6c0-68.262 55.338-123.6 123.6-123.6 59.273 0 108.801 41.722 120.818 97.4l-1.495 0c-11.992-54.865-60.861-95.94-119.323-95.94-67.456 0-122.14 54.684-122.14 122.14 0 67.456 54.684 122.14 122.14 122.14 58.462 0 107.331-41.075 119.323-95.94h1.495c-12.017 55.678-61.545 97.4-120.818 97.4-68.262 0-123.6-55.338-123.6-123.6z" fill="#a2b2d1" stroke="transparent" data-fill-palette-color="tertiary"></path></g></svg></g><defs></defs></svg><rect width="395.52" height="247.2" fill="none" stroke="none" visibility="hidden"></rect></g></svg></g></svg>